<?xml version="1.0" encoding="utf-8"?>
<svg version="1.1" xmlns:xlink="http://www.w3.org/1999/xlink" width="170px" height="170px" xmlns="http://www.w3.org/2000/svg">
  <g transform="matrix(1 0 0 1 -302 -378 )">
    <path d="M 387 378  C 434.6 378  472 415.4  472 463  C 472 510.6  434.6 548  387 548  C 339.4 548  302 510.6  302 463  C 302 415.4  339.4 378  387 378  Z " fill-rule="nonzero" fill="#ffffff" stroke="none" />
    <path d="M 387 378.5  C 434.32 378.5  471.5 415.68  471.5 463  C 471.5 510.32  434.32 547.5  387 547.5  C 339.68 547.5  302.5 510.32  302.5 463  C 302.5 415.68  339.68 378.5  387 378.5  Z " stroke-width="1" stroke="#797979" fill="none" />
  </g>
</svg>