<?xml version="1.0" encoding="utf-8"?>
<svg version="1.1" xmlns:xlink="http://www.w3.org/1999/xlink" width="72px" height="62px" xmlns="http://www.w3.org/2000/svg">
  <g transform="matrix(1 0 0 1 -204 -466 )">
    <path d="M 36.9241071428571 29.3450520833333  C 37.1651785714286 29.1028645833333  37.2857142857143 28.7934027777778  37.2857142857143 28.4166666666667  C 37.2857142857143 28.0399305555556  37.1651785714286 27.73046875  36.9241071428571 27.48828125  C 36.6830357142857 27.24609375  36.375 27.125  36 27.125  C 34.2321428571429 27.125  32.71875 27.7573784722222  31.4598214285714 29.0221354166667  C 30.2008928571429 30.2868923611111  29.5714285714286 31.8072916666667  29.5714285714286 33.5833333333333  C 29.5714285714286 33.9600694444444  29.6919642857143 34.26953125  29.9330357142857 34.51171875  C 30.1741071428571 34.75390625  30.4821428571429 34.875  30.8571428571429 34.875  C 31.2321428571429 34.875  31.5401785714286 34.75390625  31.78125 34.51171875  C 32.0223214285714 34.26953125  32.1428571428571 33.9600694444444  32.1428571428571 33.5833333333333  C 32.1428571428571 32.5069444444444  32.5178571428571 31.5920138888889  33.2678571428571 30.8385416666667  C 34.0178571428571 30.0850694444444  34.9285714285714 29.7083333333333  36 29.7083333333333  C 36.375 29.7083333333333  36.6830357142857 29.5872395833333  36.9241071428571 29.3450520833333  Z M 43.2723214285714 26.3580729166667  C 45.28125 28.3763020833333  46.2857142857143 30.8116319444444  46.2857142857143 33.6640625  C 46.2857142857143 36.5164930555556  45.28125 38.9518229166667  43.2723214285714 40.9700520833333  C 41.2633928571429 42.98828125  38.8392857142857 43.9973958333333  36 43.9973958333333  C 33.1607142857143 43.9973958333333  30.7366071428571 42.98828125  28.7276785714286 40.9700520833333  C 26.71875 38.9518229166667  25.7142857142857 36.5164930555556  25.7142857142857 33.6640625  C 25.7142857142857 30.8116319444444  26.71875 28.3763020833333  28.7276785714286 26.3580729166667  C 30.7366071428571 24.33984375  33.1607142857143 23.3307291666667  36 23.3307291666667  C 38.8392857142857 23.3307291666667  41.2633928571429 24.33984375  43.2723214285714 26.3580729166667  Z M 5.14285714285714 51  L 5.14285714285714 56  L 66.8571428571429 56  L 66.8571428571429 51  L 5.14285714285714 51  Z M 46.9084821428571 44.623046875  C 49.921875 41.595703125  51.4285714285714 37.9427083333333  51.4285714285714 33.6640625  C 51.4285714285714 29.3854166666667  49.921875 25.732421875  46.9084821428571 22.705078125  C 43.8950892857143 19.677734375  40.2589285714286 18.1640625  36 18.1640625  C 31.7410714285714 18.1640625  28.1049107142857 19.677734375  25.0915178571429 22.705078125  C 22.078125 25.732421875  20.5714285714286 29.3854166666667  20.5714285714286 33.6640625  C 20.5714285714286 37.9427083333333  22.078125 41.595703125  25.0915178571429 44.623046875  C 28.1049107142857 47.650390625  31.7410714285714 49.1640625  36 49.1640625  C 40.2589285714286 49.1640625  43.8950892857143 47.650390625  46.9084821428571 44.623046875  Z M 10.2857142857143 3  L 10.2857142857143 8  L 25.7142857142857 8  L 25.7142857142857 3  L 10.2857142857143 3  Z M 5.14285714285714 11  L 5.14285714285714 16  L 66.8571428571429 16  L 66.8571428571429 10.7369791666667  L 66.8571428571429 6  L 33.5892857142857 6  L 31.0178571428571 11  L 5.14285714285714 11  Z M 70.4933035714286 1.513671875  C 71.4977678571429 2.52278645833333  72 3.74045138888888  72 5.16666666666667  L 72 56.8333333333333  C 72 58.2595486111111  71.4977678571429 59.4772135416667  70.4933035714286 60.486328125  C 69.4888392857143 61.4954427083333  68.2767857142857 62  66.8571428571429 62  L 5.14285714285714 62  C 3.72321428571429 62  2.51116071428571 61.4954427083333  1.50669642857143 60.486328125  C 0.502232142857143 59.4772135416667  0 58.2595486111111  0 56.8333333333333  L 0 5.16666666666667  C 0 3.74045138888888  0.502232142857143 2.52278645833333  1.50669642857143 1.513671875  C 2.51116071428571 0.504557291666669  3.72321428571429 0  5.14285714285714 0  L 66.8571428571429 0  C 68.2767857142857 0  69.4888392857143 0.504557291666669  70.4933035714286 1.513671875  Z " fill-rule="nonzero" fill="#000000" stroke="none" transform="matrix(1 0 0 1 204 466 )" />
  </g>
</svg>