<?xml version="1.0" encoding="utf-8"?>
<svg version="1.1" xmlns:xlink="http://www.w3.org/1999/xlink" width="58px" height="83px" xmlns="http://www.w3.org/2000/svg">
  <g transform="matrix(1 0 0 1 -211 -624 )">
    <path d="M 57.0434027777778 32.8707932692308  C 57.6811342592593 33.5026041666667  58 34.2508012820513  58 35.1153846153846  L 58 41.5  C 58 48.8489583333333  55.5245949074074 55.2418870192308  50.5737847222222 60.6787860576923  C 45.622974537037 66.1156850961538  39.505787037037 69.2331730769231  32.2222222222222 70.03125  L 32.2222222222222 76  L 45.1111111111111 76  C 45.9837962962963 76.6153846153846  46.7390046296296 76.9312900641026  47.3767361111111 77.5631009615385  C 48.0144675925926 78.1949118589744  48.3333333333333 78.943108974359  48.3333333333333 79.8076923076923  C 48.3333333333333 80.6722756410256  48.0144675925926 81.4204727564102  47.3767361111111 82.0522836538461  C 46.7390046296296 82.6840945512821  45.9837962962963 83  45.1111111111111 83  L 12.8888888888889 83  C 12.0162037037037 83  11.2609953703704 82.6840945512821  10.6232638888889 82.0522836538461  C 9.98553240740741 81.4204727564102  9.66666666666667 80.6722756410256  9.66666666666667 79.8076923076923  C 9.66666666666667 78.943108974359  9.98553240740741 78.1949118589744  10.6232638888889 77.5631009615385  C 11.2609953703704 76.9312900641026  12.0162037037037 76.6153846153846  12.8888888888889 76  L 25.7777777777778 76  L 25.7777777777778 70.03125  C 18.494212962963 69.2331730769231  12.377025462963 66.1156850961538  7.42621527777778 60.6787860576923  C 2.47540509259259 55.2418870192308  0 48.8489583333333  0 41.5  L 0 35.1153846153846  C 0 34.2508012820513  0.318865740740741 33.5026041666667  0.956597222222222 32.8707932692308  C 1.5943287037037 32.2389823717949  2.34953703703704 31.9230769230769  3.22222222222222 31.9230769230769  C 4.09490740740741 31.9230769230769  4.85011574074074 32.2389823717949  5.48784722222222 32.8707932692308  C 6.1255787037037 33.5026041666667  6.44444444444444 34.2508012820513  6.44444444444444 35.1153846153846  L 6.44444444444444 41.5  C 6.44444444444444 47.6518429487179  8.65133101851852 52.9141626602564  13.0651041666667 57.2869591346154  C 17.4788773148148 61.6597556089744  22.7905092592593 63.8461538461538  29 63.8461538461538  C 35.2094907407407 63.8461538461538  40.5211226851852 61.6597556089744  44.9348958333333 57.2869591346154  C 49.3486689814815 52.9141626602564  51.5555555555556 47.6518429487179  51.5555555555556 41.5  L 51.5555555555556 35.1153846153846  C 51.5555555555556 34.2508012820513  51.8744212962963 33.5026041666667  52.5121527777778 32.8707932692308  C 53.1498842592593 32.2389823717949  53.9050925925926 31.9230769230769  54.7777777777778 31.9230769230769  C 55.650462962963 31.9230769230769  56.4056712962963 32.2389823717949  57.0434027777778 32.8707932692308  Z M 40.3784722222222 4.68870192307692  C 43.5335648148148 7.8145032051282  45.1111111111111 11.5721153846154  45 15.9615384615385  L 45 41.5  C 45.1111111111111 45.8894230769231  43.5335648148148 49.6470352564102  40.3784722222222 52.7728365384615  C 37.2233796296296 55.8986378205128  33.4305555555556 57.4615384615385  29 57.4615384615385  C 24.5694444444444 57.4615384615385  20.7766203703704 55.8986378205128  17.6215277777778 52.7728365384615  C 14.4664351851852 49.6470352564102  12.8888888888889 45.8894230769231  13 41.5  L 13 15.9615384615385  C 12.8888888888889 11.5721153846154  14.4664351851852 7.8145032051282  17.6215277777778 4.68870192307692  C 20.7766203703704 1.56290064102565  24.5694444444444 0  29 0  C 33.4305555555556 0  37.2233796296296 1.56290064102565  40.3784722222222 4.68870192307692  Z " fill-rule="nonzero" fill="#000000" stroke="none" transform="matrix(1 0 0 1 211 624 )" />
  </g>
</svg>