<?xml version="1.0" encoding="utf-8"?>
<svg version="1.1" xmlns:xlink="http://www.w3.org/1999/xlink" width="50px" height="37px" xmlns="http://www.w3.org/2000/svg">
  <defs>
    <filter x="521px" y="1367px" width="50px" height="37px" filterUnits="userSpaceOnUse" id="filter4">
      <feOffset dx="0" dy="0" in="SourceAlpha" result="shadowOffsetInner" />
      <feGaussianBlur stdDeviation="0" in="shadowOffsetInner" result="shadowGaussian" />
      <feComposite in2="shadowGaussian" operator="atop" in="SourceAlpha" result="shadowComposite" />
      <feColorMatrix type="matrix" values="0 0 0 0 0  0 0 0 0 0  0 0 0 0 0  0 0 0 0.313725490196078 0  " in="shadowComposite" />
    </filter>
    <g id="widget5">
      <path d="M 25.6417410714286 17.5123697916667  C 25.8091517857143 17.3678385416667  25.8928571428571 17.1831597222222  25.8928571428571 16.9583333333333  C 25.8928571428571 16.7335069444444  25.8091517857143 16.548828125  25.6417410714286 16.404296875  C 25.4743303571429 16.259765625  25.2604166666667 16.1875  25 16.1875  C 23.7723214285714 16.1875  22.7213541666667 16.5648871527778  21.8470982142857 17.3196614583333  C 20.9728422619048 18.0744357638889  20.5357142857143 18.9817708333333  20.5357142857143 20.0416666666667  C 20.5357142857143 20.2664930555556  20.6194196428571 20.451171875  20.7868303571429 20.595703125  C 20.9542410714286 20.740234375  21.1681547619048 20.8125  21.4285714285714 20.8125  C 21.6889880952381 20.8125  21.9029017857143 20.740234375  22.0703125 20.595703125  C 22.2377232142857 20.451171875  22.3214285714286 20.2664930555556  22.3214285714286 20.0416666666667  C 22.3214285714286 19.3993055555556  22.5818452380952 18.8532986111111  23.1026785714286 18.4036458333333  C 23.6235119047619 17.9539930555556  24.2559523809524 17.7291666666667  25 17.7291666666667  C 25.2604166666667 17.7291666666667  25.4743303571429 17.6569010416667  25.6417410714286 17.5123697916667  Z M 30.0502232142857 15.7298177083333  C 31.4453125 16.9342447916667  32.1428571428571 18.3875868055556  32.1428571428571 20.08984375  C 32.1428571428571 21.7921006944444  31.4453125 23.2454427083333  30.0502232142857 24.4498697916667  C 28.6551339285714 25.654296875  26.9717261904762 26.2565104166667  25 26.2565104166667  C 23.0282738095238 26.2565104166667  21.3448660714286 25.654296875  19.9497767857143 24.4498697916667  C 18.5546875 23.2454427083333  17.8571428571429 21.7921006944444  17.8571428571429 20.08984375  C 17.8571428571429 18.3875868055556  18.5546875 16.9342447916667  19.9497767857143 15.7298177083333  C 21.3448660714286 14.525390625  23.0282738095238 13.9231770833333  25 13.9231770833333  C 26.9717261904762 13.9231770833333  28.6551339285714 14.525390625  30.0502232142857 15.7298177083333  Z M 3.57142857142857 30.8333333333333  L 3.57142857142857 34  L 46.4285714285714 34  L 46.4285714285714 30.8333333333333  L 3.57142857142857 30.8333333333333  Z M 32.5753348214286 26.6298828125  C 34.66796875 24.8232421875  35.7142857142857 22.6432291666667  35.7142857142857 20.08984375  C 35.7142857142857 17.5364583333333  34.66796875 15.3564453125  32.5753348214286 13.5498046875  C 30.4827008928571 11.7431640625  27.9575892857143 10.83984375  25 10.83984375  C 22.0424107142857 10.83984375  19.5172991071429 11.7431640625  17.4246651785714 13.5498046875  C 15.33203125 15.3564453125  14.2857142857143 17.5364583333333  14.2857142857143 20.08984375  C 14.2857142857143 22.6432291666667  15.33203125 24.8232421875  17.4246651785714 26.6298828125  C 19.5172991071429 28.4365234375  22.0424107142857 29.33984375  25 29.33984375  C 27.9575892857143 29.33984375  30.4827008928571 28.4365234375  32.5753348214286 26.6298828125  Z M 7.14285714285714 2  L 7.14285714285714 5  L 17.8571428571429 5  L 17.8571428571429 2  L 7.14285714285714 2  Z M 3.57142857142857 6.16666666666667  L 3.57142857142857 9.25  L 46.4285714285714 9.25  L 46.4285714285714 6.40755208333333  L 46.4285714285714 3  L 23.3258928571429 3  L 21.5401785714286 6.16666666666667  L 3.57142857142857 6.16666666666667  Z M 48.9536830357143 0.9033203125  C 49.6512276785714 1.50553385416667  50 2.23220486111111  50 3.08333333333333  L 50 33.9166666666667  C 50 34.7677951388889  49.6512276785714 35.4944661458333  48.9536830357143 36.0966796875  C 48.2561383928571 36.6988932291667  47.4144345238095 37  46.4285714285714 37  L 3.57142857142857 37  C 2.58556547619048 37  1.74386160714286 36.6988932291667  1.04631696428571 36.0966796875  C 0.348772321428571 35.4944661458333  0 34.7677951388889  0 33.9166666666667  L 0 3.08333333333333  C 0 2.23220486111111  0.348772321428571 1.50553385416667  1.04631696428571 0.9033203125  C 1.74386160714286 0.301106770833335  2.58556547619048 0  3.57142857142857 0  L 46.4285714285714 0  C 47.4144345238095 0  48.2561383928571 0.301106770833335  48.9536830357143 0.9033203125  Z " fill-rule="nonzero" fill="#555555" stroke="none" transform="matrix(1 0 0 1 521 1367 )" />
    </g>
  </defs>
  <g transform="matrix(1 0 0 1 -521 -1367 )">
    <use xlink:href="#widget5" filter="url(#filter4)" />
    <use xlink:href="#widget5" />
  </g>
</svg>