<?xml version="1.0" encoding="utf-8"?>
<svg version="1.1" xmlns:xlink="http://www.w3.org/1999/xlink" width="26px" height="37px" xmlns="http://www.w3.org/2000/svg">
  <g transform="matrix(1 0 0 1 -545 -2432 )">
    <path d="M 25.5711805555556 14.6532451923077  C 25.8570601851852 14.9348958333333  26 15.2684294871795  26 15.6538461538462  L 26 18.5  C 26 21.7760416666667  24.8903356481482 24.6259014423077  22.6710069444444 27.0495793269231  C 20.4516782407407 29.4732572115385  17.7094907407407 30.8629807692308  14.4444444444444 31.21875  L 14.4444444444444 34.1538461538462  L 20.2222222222222 34.1538461538462  C 20.6134259259259 34.1538461538462  20.9519675925926 34.294671474359  21.2378472222222 34.5763221153846  C 21.5237268518519 34.8579727564103  21.6666666666667 35.1915064102564  21.6666666666667 35.5769230769231  C 21.6666666666667 35.9623397435897  21.5237268518519 36.2958733974359  21.2378472222222 36.5775240384615  C 20.9519675925926 36.8591746794872  20.6134259259259 37  20.2222222222222 37  L 5.77777777777778 37  C 5.38657407407407 37  5.04803240740741 36.8591746794872  4.76215277777778 36.5775240384615  C 4.47627314814815 36.2958733974359  4.33333333333333 35.9623397435897  4.33333333333333 35.5769230769231  C 4.33333333333333 35.1915064102564  4.47627314814815 34.8579727564103  4.76215277777778 34.5763221153846  C 5.04803240740741 34.294671474359  5.38657407407407 34.1538461538462  5.77777777777778 34.1538461538462  L 11.5555555555556 34.1538461538462  L 11.5555555555556 31.21875  C 8.29050925925926 30.8629807692308  5.54832175925926 29.4732572115385  3.32899305555556 27.0495793269231  C 1.10966435185185 24.6259014423077  0 21.7760416666667  0 18.5  L 0 15.6538461538462  C 0 15.2684294871795  0.142939814814815 14.9348958333333  0.428819444444444 14.6532451923077  C 0.714699074074074 14.3715945512821  1.05324074074074 14.2307692307692  1.44444444444444 14.2307692307692  C 1.83564814814815 14.2307692307692  2.17418981481481 14.3715945512821  2.46006944444444 14.6532451923077  C 2.74594907407407 14.9348958333333  2.88888888888889 15.2684294871795  2.88888888888889 15.6538461538462  L 2.88888888888889 18.5  C 2.88888888888889 21.2423878205128  3.87818287037037 23.5882411858974  5.85677083333333 25.5375600961538  C 7.8353587962963 27.4868790064103  10.2164351851852 28.4615384615385  13 28.4615384615385  C 15.7835648148148 28.4615384615385  18.1646412037037 27.4868790064103  20.1432291666667 25.5375600961538  C 22.1218171296296 23.5882411858974  23.1111111111111 21.2423878205128  23.1111111111111 18.5  L 23.1111111111111 15.6538461538462  C 23.1111111111111 15.2684294871795  23.2540509259259 14.9348958333333  23.5399305555556 14.6532451923077  C 23.8258101851852 14.3715945512821  24.1643518518519 14.2307692307692  24.5555555555556 14.2307692307692  C 24.9467592592593 14.2307692307692  25.2853009259259 14.3715945512821  25.5711805555556 14.6532451923077  Z M 18.1006944444444 2.09014423076923  C 19.5150462962963 3.48357371794872  20.2222222222222 5.15865384615384  20 7.11538461538462  L 20 18.5  C 20.2222222222222 20.4567307692308  19.5150462962963 22.1318108974359  18.1006944444444 23.5252403846154  C 16.6863425925926 24.9186698717949  14.9861111111111 25.6153846153846  13 25.6153846153846  C 11.0138888888889 25.6153846153846  9.31365740740741 24.9186698717949  7.89930555555556 23.5252403846154  C 6.48495370370371 22.1318108974359  5.77777777777778 20.4567307692308  6 18.5  L 6 7.11538461538462  C 5.77777777777778 5.15865384615384  6.48495370370371 3.48357371794872  7.89930555555556 2.09014423076923  C 9.31365740740741 0.696714743589747  11.0138888888889 0  13 0  C 14.9861111111111 0  16.6863425925926 0.696714743589747  18.1006944444444 2.09014423076923  Z " fill-rule="nonzero" fill="#000000" stroke="none" transform="matrix(1 0 0 1 545 2432 )" />
  </g>
</svg>