<?xml version="1.0" encoding="utf-8"?>
<svg version="1.1" xmlns:xlink="http://www.w3.org/1999/xlink" width="186px" height="198px" xmlns="http://www.w3.org/2000/svg">
  <g transform="matrix(1 0 0 1 -2589 -2204 )">
    <path d="M 181.32472826087 87.5622593068036  C 184.441576086957 90.5275994865212  186 94.3401797175866  186 99  C 186 103.575096277279  184.441576086957 107.430038510911  181.32472826087 110.564826700899  L 99.0652173913044 193.297817715019  C 95.7798913043478 196.432605905006  91.9470108695652 198  87.5665760869565 198  C 83.2703804347826 198  79.4796195652174 196.432605905006  76.1942934782609 193.297817715019  L 66.7173913043478 183.766367137356  C 63.5163043478261 180.546854942234  61.9157608695652 176.691912708601  61.9157608695652 172.201540436457  C 61.9157608695652 167.711168164313  63.5163043478261 163.85622593068  66.7173913043478 160.636713735558  L 103.740489130435 123  L 14.7839673913043 123  C 10.4035326086957 123.400513478819  6.84442934782609 121.811938382542  4.10665760869565 118.634788189987  C 1.36888586956522 115.457637997433  0 111.623876765083  0 107.13350449294  L 0 90.8664955070603  C 0 86.3761232349165  1.36888586956522 82.5423620025674  4.10665760869565 79.3652118100128  C 6.84442934782609 76.1880616174583  10.4035326086957 74.599486521181  14.7839673913043 75  L 103.740489130435 75  L 66.7173913043478 37.2362002567394  C 63.5163043478261 34.186136071887  61.9157608695652 30.3735558408216  61.9157608695652 25.798459563543  C 61.9157608695652 21.2233632862645  63.5163043478261 17.410783055199  66.7173913043478 14.3607188703466  L 76.1942934782609 4.82926829268293  C 79.3953804347826 1.60975609756096  83.1861413043478 0  87.5665760869565 0  C 92.03125 0  95.8641304347826 1.60975609756096  99.0652173913044 4.82926829268293  L 181.32472826087 87.5622593068036  Z " fill-rule="nonzero" fill="#000000" stroke="none" transform="matrix(1 0 0 1 2589 2204 )" />
  </g>
</svg>