<?xml version="1.0" encoding="utf-8"?>
<svg version="1.1" xmlns:xlink="http://www.w3.org/1999/xlink" width="50px" height="40px" xmlns="http://www.w3.org/2000/svg">
  <g transform="matrix(1 0 0 1 -310 -715 )">
    <path d="M 17.0803123257111 31.9972451790634  C 17.8332403792527 31.7493112947658  18.4142033835285 31.3131313131313  18.8232013385388 30.6887052341598  C 19.2136084774122 30.0642791551882  19.3158579661647 29.4306703397612  19.1299498047964 28.7878787878788  C 18.9440416434281 28.1450872359963  18.5257482803495 27.6859504132231  17.8750697155605 27.4104683195592  C 17.2429819669083 27.1533516988062  16.5644171779141 27.1441689623508  15.8393753485778 27.3829201101928  C 15.1143335192415 27.6216712580349  14.5566090351366 28.0440771349862  14.1662018962632 28.6501377410468  C 13.757203941253 29.2745638200184  13.6363636363636 29.9035812672176  13.8036809815951 30.5371900826446  C 13.9709983268265 31.1707988980716  14.3707008737684 31.6345270890725  15.0027886224205 31.9283746556474  C 15.6348763710727 32.2222222222222  16.3273842721695 32.2451790633609  17.0803123257111 31.9972451790634  Z M 20.8310094813162 27.8650137741047  C 21.1098717233687 27.7640036730946  21.3143707008738 27.5941230486685  21.4445064138316 27.3553719008264  C 21.5932329429262 27.1166207529844  21.6257668711656 26.8732782369146  21.5421081985499 26.6253443526171  C 21.4584495259342 26.3774104683196  21.2957798847369 26.2075298438935  21.0540992749582 26.1157024793388  C 20.7938278490426 26.0238751147842  20.5289087190928 26.0284664830119  20.2593418851088 26.129476584022  C 19.9897750511247 26.2304866850321  19.7899237776538 26.4003673094582  19.659788064696 26.6391184573003  C 19.34374419037 27.208448117539  19.4645844952593 27.6216712580349  20.0223089793642 27.8787878787879  C 20.2825804052798 27.9706152433425  20.5521472392638 27.9660238751148  20.8310094813162 27.8650137741047  Z M 26.2269938650307 25.0550964187328  C 27.11005763153 26.7171717171717  27.1332961517011 28.4664830119376  26.2967094255438 30.3030303030303  C 25.4601226993865 32.1763085399449  23.9914482245771 33.5537190082645  21.8906860011155 34.435261707989  C 19.7899237776538 35.3168044077135  17.7077523703291 35.4269972451791  15.6441717791411 34.7658402203857  C 13.6549544525005 34.1414141414141  12.2838817624094 32.979797979798  11.5309537088678 31.2809917355372  C 10.7780256553263 29.5821854912764  10.838445807771 27.8604224058769  11.7122141662019 26.1157024793388  C 12.5859825246328 24.4077134986226  13.9942368469976 23.1313131313131  15.9369771332962 22.2865013774105  C 17.8797174195947 21.4416896235078  19.8364008179959 21.267217630854  21.8070273284997 21.763085399449  C 23.8706079196877 22.2956841138659  25.3439300985313 23.3930211202938  26.2269938650307 25.0550964187328  Z M 31.3022866703848 33.1818181818182  C 34.0258412344302 31.0055096418733  35.2574828034951 28.5766758494031  34.9972113775795 25.8953168044077  C 34.829894032348 24.1322314049587  34.0026027142592 22.5711662075298  32.5153374233129 21.2121212121212  C 31.0280721323666 19.8530762167126  29.0899795501023 18.852157943067  26.7010596765198 18.2093663911846  C 24.3121398029373 17.5665748393021  21.7605502881577 17.3737373737374  19.0462911321807 17.6308539944904  C 14.900539133668 18.0532598714417  11.4658858523889 19.3526170798898  8.74233128834356 21.5289256198347  C 6.0187767242982 23.7052341597796  4.78713515523332 26.1340679522498  5.04740658114891 28.8154269972452  C 5.21472392638037 30.5785123966942  6.04201524446923 32.1395775941231  7.5292805354155 33.4986225895317  C 9.01654582636178 34.8576675849403  10.9546384086261 35.8585858585859  13.3435582822086 36.5013774104683  C 15.732478155791 37.1441689623508  18.2840676705707 37.3370064279155  20.9983268265477 37.0798898071625  C 25.1440788250604 36.6574839302112  28.5787321063395 35.3581267217631  31.3022866703848 33.1818181818182  Z M 42.638036809816 22.7961432506887  C 43.2701245584681 23.7603305785124  43.5861684327942 24.8301193755739  43.5861684327942 26.0055096418733  C 43.5861684327942 27.2543617998163  43.2422383342629 28.5353535353535  42.5543781372002 29.8484848484848  C 41.8665179401376 31.1616161616162  40.8533184606804 32.4196510560147  39.5147796988288 33.6225895316804  C 38.1762409369771 34.8255280073462  36.6099646774493 35.9044995408632  34.8159509202454 36.8595041322314  C 33.0219371630415 37.8145087235996  30.9211749395799 38.5766758494031  28.5136642498606 39.1460055096419  C 26.1061535601413 39.7153351698806  23.5917456776352 40  20.9704406023424 40  C 18.3491355270496 40  15.7928983082357 39.692378328742  13.3017289459007 39.0771349862259  C 10.8105595835657 38.4618916437098  8.5750139431121 37.6078971533517  6.59509202453988 36.5151515151515  C 4.61517010596765 35.4224058769513  3.02100762223462 34.0358126721763  1.81260457334077 32.3553719008264  C 0.604201524446923 30.6749311294766  0 28.8429752066116  0 26.8595041322314  C 0 24.7474747474747  0.646030860754787 22.4977043158861  1.93809258226436 20.1101928374656  C 3.23015430377394 17.722681359045  5.06599739728574 15.3535353535353  7.44562186279978 13.0027548209366  C 10.5874697899238 9.8989898989899  13.7618516452872 7.73186409550045  16.9687674288901 6.50137741046832  C 20.175683212493 5.27089072543618  22.4670013013571 5.33516988062442  23.8427216954824 6.69421487603306  C 25.0511247443763 7.86960514233241  25.2370329057446 9.78879706152433  24.4004461795873 12.4517906336088  C 24.32608291504 12.7089072543618  24.3167875069716 12.8925619834711  24.372559955382 13.0027548209366  C 24.4283324037925 13.1129476584022  24.5212864844767 13.1772268135904  24.6514221974345 13.1955922865014  C 24.7815579103923 13.2139577594123  24.9163413273843 13.2093663911846  25.0557724484105 13.1818181818182  C 25.1952035694367 13.1542699724518  25.3206915783603 13.1221303948577  25.4322364751813 13.0853994490358  L 25.5995538204127 13.030303030303  C 28.1836772634319 11.9467401285583  30.4703476482618 11.404958677686  32.4595649749024 11.404958677686  C 34.448782301543 11.404958677686  35.8709797360104 11.9651056014692  36.7261572783045 13.0853994490358  C 37.5627440044618 14.2424242424242  37.5627440044618 15.8769513314968  36.7261572783045 17.9889807162534  C 36.6889756460309 18.2277318640955  36.647146309723 18.4113865932048  36.6006692693809 18.5399449035813  C 36.5541922290389 18.6685032139578  36.5960215653467 18.7832874196511  36.7261572783045 18.8842975206612  C 36.8562929912623 18.9853076216713  36.9678378880833 19.0541781450872  37.0607919687674 19.0909090909091  C 37.1537460494516 19.1276400367309  37.3117679866146 19.1827364554637  37.5348577802566 19.2561983471074  C 38.5945343000558 19.5867768595041  39.5519613311024 20.0183654729109  40.4071388733965 20.5509641873278  C 41.2623164156907 21.0835629017447  42.0059490611638 21.831955922865  42.638036809816 22.7961432506887  Z M 38.7060791968767 7.01101928374656  C 39.8029373489496 7.35078053259871  40.7417735638595 7.95224977043159  41.5225878416062 8.81542699724518  C 42.303402119353 9.67860422405877  42.8100018590816 10.6749311294766  43.042387060792 11.8044077134986  C 43.2747722625023 12.9338842975207  43.2143521100576 14.0128558310376  42.8611266034579 15.0413223140496  C 42.7124000743633 15.4637281910009  42.4381855363451 15.7759412304867  42.0384829894032 15.9779614325069  C 41.6387804424614 16.1799816345271  41.225134783417 16.2167125803489  40.7975460122699 16.0881542699724  C 40.3699572411229 15.941230486685  40.0539133667968 15.6703397612488  39.8494143892917 15.2754820936639  C 39.6449154117866 14.880624426079  39.6077337795129 14.4719926538108  39.7378694924707 14.0495867768595  C 40.1096858152073 12.8925619834711  39.8865960215654 11.8732782369146  39.0686001115449 10.9917355371901  C 38.2506042015244 10.1101928374656  37.2559955382041 9.78879706152433  36.0847741215839 10.0275482093664  C 35.6385945343001 10.119375573921  35.2203011712214 10.0459136822773  34.829894032348 9.80716253443526  C 34.4394868934746 9.5684113865932  34.2071016917643 9.22865013774105  34.132738427217 8.78787878787879  C 34.0397843465328 8.34710743801653  34.1141476110801 7.93847566574839  34.3558282208589 7.56198347107438  C 34.5975088306377 7.18549127640037  34.941438929169 6.95133149678604  35.3876185164529 6.85950413223141  C 36.5030674846626 6.62075298438935  37.6092210448039 6.67125803489439  38.7060791968767 7.01101928374656  Z M 40.7696597880647 0.619834710743801  C 43.0191485406209 1.30853994490358  44.9525934188511 2.54361799816345  46.5699944227552 4.32506887052341  C 48.1873954266592 6.08815426997245  49.2331288343558 8.13131313131313  49.707194645845 10.4545454545455  C 50.1812604573341 12.7777777777778  50.0557724484105 14.9954086317723  49.3307306190742 17.1074380165289  C 49.1634132738427 17.603305785124  48.8473693995166 17.9706152433425  48.3825989960959 18.2093663911846  C 47.9178285926752 18.4481175390266  47.4344673731177 18.4848484848485  46.9325153374233 18.3195592286501  C 46.430563301729 18.1542699724518  46.0587469789924 17.842056932966  45.8170663692136 17.3829201101928  C 45.5753857594348 16.9237832874196  45.5289087190928 16.4462809917355  45.6776352481874 15.9504132231405  C 46.1981781000186 14.4444444444444  46.2911321807027 12.8650137741047  45.9564974902398 11.2121212121212  C 45.6218627997769 9.55922865013774  44.8782301543038 8.10835629017447  43.7255995538204 6.85950413223141  C 42.5729689533371 5.59228650137741  41.1972485592118 4.71533516988062  39.5984383714445 4.22865013774105  C 37.9996281836773 3.74196510560147  36.3915225878416 3.66391184573003  34.7741215839375 3.99449035812672  C 34.2535787321063 4.10468319559229  33.7702175125488 4.01744719926538  33.3240379252649 3.732782369146  C 32.877858337981 3.44811753902663  32.5989960959286 3.04866850321395  32.4874511991076 2.53443526170799  C 32.3759063022867 2.02020202020202  32.4642126789366 1.54729109274563  32.7523703290574 1.11570247933884  C 33.0405279791783 0.684113865932048  33.4448782301543 0.413223140495869  33.9654210819855 0.303030303030303  C 36.2520914668154 -0.174471992653817  38.5201710355085 -0.0688705234159759  40.7696597880647 0.619834710743801  Z " fill-rule="nonzero" fill="#000000" stroke="none" transform="matrix(1 0 0 1 310 715 )" />
  </g>
</svg>