<?xml version="1.0" encoding="utf-8"?>
<svg version="1.1" xmlns:xlink="http://www.w3.org/1999/xlink" width="171px" height="32px" xmlns="http://www.w3.org/2000/svg">
  <defs>
    <mask fill="white" id="clip1">
      <path d="M 0 26.6666666666667  L 0 5.33333333333333  C 0 2.34666666666667  7.52400000000005 0  17.0999999999999 0  L 75.0731707317073 0  L 82.08 0  L 153.9 0  C 163.476 0  171 2.34666666666667  171 5.33333333333333  L 171 26.6666666666667  C 171 29.6533333333333  163.476 32  153.9 32  L 17.0999999999999 32  C 7.52400000000005 32  0 29.6533333333333  0 26.6666666666667  Z " fill-rule="evenodd" />
    </mask>
  </defs>
  <g transform="matrix(1 0 0 1 -1369 -93 )">
    <path d="M 0 26.6666666666667  L 0 5.33333333333333  C 0 2.34666666666667  7.52400000000005 0  17.0999999999999 0  L 75.0731707317073 0  L 82.08 0  L 153.9 0  C 163.476 0  171 2.34666666666667  171 5.33333333333333  L 171 26.6666666666667  C 171 29.6533333333333  163.476 32  153.9 32  L 17.0999999999999 32  C 7.52400000000005 32  0 29.6533333333333  0 26.6666666666667  Z " fill-rule="nonzero" fill="#ffffff" stroke="none" transform="matrix(1 0 0 1 1369 93 )" />
    <path d="M 0 26.6666666666667  L 0 5.33333333333333  C 0 2.34666666666667  7.52400000000005 0  17.0999999999999 0  L 75.0731707317073 0  L 82.08 0  L 153.9 0  C 163.476 0  171 2.34666666666667  171 5.33333333333333  L 171 26.6666666666667  C 171 29.6533333333333  163.476 32  153.9 32  L 17.0999999999999 32  C 7.52400000000005 32  0 29.6533333333333  0 26.6666666666667  Z " stroke-width="2" stroke="#797979" fill="none" transform="matrix(1 0 0 1 1369 93 )" mask="url(#clip1)" />
  </g>
</svg>