<?xml version="1.0" encoding="utf-8"?>
<svg version="1.1" xmlns:xlink="http://www.w3.org/1999/xlink" width="246px" height="45px" xmlns="http://www.w3.org/2000/svg">
  <defs>
    <mask fill="white" id="clip2">
      <path d="M 0 37.5  L 0 7.5  C 0 3.3  10.8240000000002 0  24.6 0  L 118.08 0  L 221.4 0  C 235.176 0  246 3.3  246 7.5  L 246 37.5  C 246 41.7  235.176 45  221.4 45  L 24.6 45  C 10.8240000000002 45  0 41.7  0 37.5  Z " fill-rule="evenodd" />
    </mask>
  </defs>
  <g transform="matrix(1 0 0 1 -2207 -1111 )">
    <path d="M 0 37.5  L 0 7.5  C 0 3.3  10.8240000000002 0  24.6 0  L 118.08 0  L 221.4 0  C 235.176 0  246 3.3  246 7.5  L 246 37.5  C 246 41.7  235.176 45  221.4 45  L 24.6 45  C 10.8240000000002 45  0 41.7  0 37.5  Z " fill-rule="nonzero" fill="#ffffff" stroke="none" transform="matrix(1 0 0 1 2207 1111 )" />
    <path d="M 0 37.5  L 0 7.5  C 0 3.3  10.8240000000002 0  24.6 0  L 118.08 0  L 221.4 0  C 235.176 0  246 3.3  246 7.5  L 246 37.5  C 246 41.7  235.176 45  221.4 45  L 24.6 45  C 10.8240000000002 45  0 41.7  0 37.5  Z " stroke-width="2" stroke="#797979" fill="none" transform="matrix(1 0 0 1 2207 1111 )" mask="url(#clip2)" />
  </g>
</svg>